HIERARCHY
ROOT Hips
{
	OFFSET 0.000000 0.000000 0.000000
	CHANNELS 6 Xposition Yposition Zposition Yrotation Xrotation Zrotation
	JOINT Chest
	{
		OFFSET 0.000000 -0.009281 11.569106
		CHANNELS 3 Yrotation Xrotation Zrotation
		JOINT Chest2
		{
			OFFSET -0.000000 0.016865 9.269641
			CHANNELS 3 Yrotation Xrotation Zrotation
			JOINT Chest3
			{
				OFFSET -0.000000 0.000001 8.374491
				CHANNELS 3 Yrotation Xrotation Zrotation
				JOINT Chest4
				{
					OFFSET -0.000000 0.000001 8.374493
					CHANNELS 3 Yrotation Xrotation Zrotation
					JOINT Neck
					{
						OFFSET -0.000000 0.000002 12.152554
						CHANNELS 3 Yrotation Xrotation Zrotation
						JOINT Head
						{
							OFFSET -0.000000 0.040101 7.802319
							CHANNELS 3 Yrotation Xrotation Zrotation
							End Site
							{
								OFFSET -0.000000 0.020947 14.853096
							}
						}
					}
					JOINT RightCollar
					{
						OFFSET 2.894404 0.000001 6.791374
						CHANNELS 3 Yrotation Xrotation Zrotation
						JOINT RightShoulder
						{
							OFFSET 13.574684 0.000001 0.000000
							CHANNELS 3 Yrotation Xrotation Zrotation
							JOINT RightElbow
							{
								OFFSET 23.923903 0.000002 0.000000
								CHANNELS 3 Yrotation Xrotation Zrotation
								JOINT RightWrist
								{
									OFFSET 19.846718 0.012767 0.000000
									CHANNELS 3 Yrotation Xrotation Zrotation
									End Site
									{
										OFFSET 14.973145 0.000001 0.000000
									}
								}
							}
						}
					}
					JOINT LeftCollar
					{
						OFFSET -2.894404 0.000001 6.791374
						CHANNELS 3 Yrotation Xrotation Zrotation
						JOINT LeftShoulder
						{
							OFFSET -13.574684 -0.000001 0.000000
							CHANNELS 3 Yrotation Xrotation Zrotation
							JOINT LeftElbow
							{
								OFFSET -23.923903 -0.000002 0.000000
								CHANNELS 3 Yrotation Xrotation Zrotation
								JOINT LeftWrist
								{
									OFFSET -19.846718 0.012763 0.000000
									CHANNELS 3 Yrotation Xrotation Zrotation
									End Site
									{
										OFFSET -14.973145 -0.000001 0.000000
									}
								}
							}
						}
					}
				}
			}
		}
	}
	JOINT RightHip
	{
		OFFSET 9.469263 0.004643 0.045487
		CHANNELS 3 Yrotation Xrotation Zrotation
		JOINT RightKnee
		{
			OFFSET 0.000000 0.002661 -40.478676
			CHANNELS 3 Yrotation Xrotation Zrotation
			JOINT RightAnkle
			{
				OFFSET 0.000000 0.049106 -35.224068
				CHANNELS 3 Yrotation Xrotation Zrotation
				JOINT RightToe
				{
					OFFSET -0.000001 12.539529 -6.151390
					CHANNELS 3 Yrotation Xrotation Zrotation
					End Site
					{
						OFFSET -0.000001 5.044994 -1.291870
					}
				}
			}
		}
	}
	JOINT LeftHip
	{
		OFFSET -9.469263 0.004641 0.045487
		CHANNELS 3 Yrotation Xrotation Zrotation
		JOINT LeftKnee
		{
			OFFSET 0.000000 0.002661 -40.478676
			CHANNELS 3 Yrotation Xrotation Zrotation
			JOINT LeftAnkle
			{
				OFFSET 0.000000 0.049106 -35.224068
				CHANNELS 3 Yrotation Xrotation Zrotation
				JOINT LeftToe
				{
					OFFSET -0.000001 12.539529 -6.151390
					CHANNELS 3 Yrotation Xrotation Zrotation
					End Site
					{
						OFFSET -0.000001 5.044994 -1.291870
					}
				}
			}
		}
	}
}
MOTION
Frames: 7
Frame Time: 0.016667
14.131783 5.121806 83.301224 -0.616506 -0.009922 -104.764822 -0.605883 -4.709257 2.137970 -0.250698 -2.128879 0.873005 -0.250698 -2.128880 0.873005 -0.184959 -1.597022 0.653804 1.800748 -16.232091 -3.093436 2.233171 6.048824 -5.102448 2.096488 7.541270 1.343372 71.239467 28.522491 76.563477 44.759449 43.781680 49.015029 -18.752588 52.381872 -18.278633 -3.439587 1.359833 -15.218901 -69.997199 34.325645 -79.499215 -32.148751 37.784856 -41.843945 44.156784 52.837988 31.005579 -1.019427 -3.585041 -0.571033 3.410283 -5.570401 -10.317293 -1.070971 5.648718 -0.262602 0.080594 0.125842 0.125208 -0.019038 -5.029744 2.199732 0.137592 -2.482316 -1.042872 -1.986215 4.375318 -0.700542 0.086450 0.003751 -0.037944 
14.176641 5.117236 83.304581 -0.621536 -0.001960 -104.781597 -0.589290 -4.721639 2.123299 -0.241939 -2.135645 0.866299 -0.241939 -2.135644 0.866303 -0.178406 -1.602081 0.648805 1.774767 -16.053473 -3.095833 2.179179 6.379690 -5.117579 1.902463 7.757161 1.323887 71.104148 28.791320 76.870671 44.141740 44.121659 48.342231 -13.741917 51.346275 -16.466538 -3.326652 1.599307 -15.200729 -69.961436 34.623585 -79.794279 -31.313545 37.742673 -40.945714 41.652297 53.225424 30.450609 -1.035094 -3.620360 -0.561879 3.407616 -5.560867 -10.309929 -1.052820 5.649248 -0.254532 0.071612 0.128578 0.124324 -0.035695 -5.077141 2.193729 0.141750 -2.457178 -1.003629 -2.017798 4.353223 -0.715298 0.089485 0.016386 -0.038601 
14.221298 5.113071 83.306557 -0.629428 0.007082 -104.795545 -0.572752 -4.755880 2.111856 -0.234582 -2.150644 0.862142 -0.234582 -2.150645 0.862142 -0.172881 -1.613318 0.645706 1.746735 -15.873175 -3.102278 2.119725 6.713553 -5.141216 1.720434 8.100957 1.338845 70.793989 29.114375 77.037840 43.285791 44.338368 47.459368 -9.511112 50.251904 -15.072931 -3.169592 1.928536 -15.165364 -69.699273 34.876278 -79.910481 -30.596867 37.920076 -40.103794 38.655756 54.110712 30.045244 -1.049920 -3.666469 -0.545527 3.403383 -5.535024 -10.308736 -1.037496 5.647666 -0.253307 0.065605 0.126117 0.125521 -0.051623 -5.126542 2.164337 0.140598 -2.432745 -0.952073 -2.045358 4.331155 -0.726910 0.091007 0.026297 -0.039325 
14.265685 5.104308 83.308784 -0.638304 0.012229 -104.809649 -0.559757 -4.783167 2.111426 -0.228849 -2.161563 0.863552 -0.228849 -2.161562 0.863552 -0.168561 -1.621501 0.646779 1.721730 -15.710326 -3.117779 2.062921 7.014981 -5.180706 1.569260 8.400796 1.350761 70.202194 29.458876 77.076820 42.031072 44.423923 46.352054 -5.417261 48.835484 -13.584377 -2.919941 2.171863 -15.138013 -69.464738 35.162411 -80.052556 -30.298422 38.381773 -39.569461 34.860603 54.979693 29.218600 -1.054965 -3.718276 -0.537077 3.391520 -5.504087 -10.308332 -1.018739 5.644295 -0.243552 0.059121 0.123965 0.126501 -0.056662 -5.178088 2.132349 0.130507 -2.409043 -0.904973 -2.069521 4.308671 -0.732295 0.091247 0.034781 -0.038014 
14.311515 5.093856 83.311722 -0.652217 0.016882 -104.824108 -0.540072 -4.820750 2.097902 -0.219396 -2.176735 0.859832 -0.219396 -2.176735 0.859831 -0.161464 -1.632864 0.644013 1.680411 -15.544834 -3.121592 1.979748 7.320983 -5.204677 1.389889 8.672019 1.344272 69.444733 29.744036 77.066978 40.861310 44.487153 45.385825 -1.731852 47.101712 -12.370020 -2.651700 2.297506 -15.087061 -69.409564 35.507650 -80.386101 -29.903275 38.722975 -39.056285 30.637596 55.430059 27.957361 -1.061235 -3.780132 -0.555459 3.377284 -5.467293 -10.294259 -0.993815 5.638964 -0.217134 0.049691 0.122238 0.123768 -0.063130 -5.231369 2.100952 0.125059 -2.394986 -0.863981 -2.094118 4.290709 -0.734890 0.089241 0.043765 -0.037343 
14.358886 5.083147 83.314285 -0.674270 0.018386 -104.844838 -0.518687 -4.857257 2.079530 -0.209328 -2.191600 0.854358 -0.209329 -2.191600 0.854358 -0.153912 -1.643997 0.639939 1.635688 -15.375630 -3.119784 1.892025 7.633816 -5.219720 1.187832 8.876393 1.324956 68.802961 30.056408 77.144439 39.829067 44.561254 44.446640 1.693734 45.125540 -11.451576 -2.425050 2.333227 -15.054910 -69.427910 35.969132 -80.902703 -29.000468 38.782268 -38.121991 25.974241 55.121853 26.095089 -1.068351 -3.852557 -0.593037 3.364709 -5.429734 -10.257809 -0.972653 5.638248 -0.189519 0.043104 0.117967 0.121966 -0.073376 -5.289108 2.086275 0.128138 -2.394020 -0.838304 -2.119641 4.282471 -0.735097 0.085760 0.051712 -0.037678 
14.405345 5.073662 83.314857 -0.694597 0.021689 -104.875410 -0.492957 -4.885502 2.045918 -0.197163 -2.203937 0.840774 -0.197163 -2.203938 0.840774 -0.144821 -1.653228 0.629793 1.584632 -15.204527 -3.106533 1.796524 7.950126 -5.216035 0.959196 9.121641 1.324797 68.278123 30.364036 77.295926 38.765722 44.682193 43.374724 4.951491 42.891761 -10.776791 -2.301076 2.470685 -15.015503 -69.194877 36.454188 -81.283336 -27.557339 38.609335 -36.691312 21.164820 54.316137 24.018041 -1.080243 -3.919133 -0.624047 3.357645 -5.395700 -10.217826 -0.958619 5.645209 -0.164464 0.040947 0.109228 0.120556 -0.089213 -5.344451 2.092642 0.135305 -2.395401 -0.821605 -2.143366 4.280060 -0.733147 0.081036 0.055884 -0.038390 
